<mxfile host="app.diagrams.net" agent="Mozilla/5.0 (Macintosh; Intel Mac OS X 10_15_7) AppleWebKit/537.36 (KHTML, like Gecko) Chrome/137.0.0.0 Safari/537.36" version="27.2.0" pages="2">
  <diagram name="Authentication Sequence" id="Yvs4e3F8PGJsj_t_A6vQ">
    <mxGraphModel dx="1501" dy="867" grid="1" gridSize="10" guides="1" tooltips="1" connect="1" arrows="1" fold="1" page="1" pageScale="1" pageWidth="850" pageHeight="1100" math="0" shadow="0">
      <root>
        <mxCell id="0" />
        <mxCell id="1" parent="0" />
        <mxCell id="JSVNIF9AeEhyUIgbB0q5-1" value="Processus d&#39;Authentification - Diagramme de Séquence" style="text;html=1;strokeColor=none;fillColor=none;align=center;verticalAlign=middle;whiteSpace=wrap;rounded=0;fontSize=16;fontStyle=1;fontColor=#2E86AB;" vertex="1" parent="1">
          <mxGeometry x="505" y="80" width="470" height="30" as="geometry" />
        </mxCell>
        <mxCell id="JSVNIF9AeEhyUIgbB0q5-2" value="Utilisateur" style="shape=umlActor;verticalLabelPosition=bottom;verticalAlign=top;html=1;outlineConnect=0;fillColor=#A8DADC;strokeColor=#457B9D;fontColor=#1D3557;fontSize=12;fontStyle=1;" vertex="1" parent="1">
          <mxGeometry x="331" y="147" width="30" height="60" as="geometry" />
        </mxCell>
        <mxCell id="JSVNIF9AeEhyUIgbB0q5-3" value="Frontend" style="rounded=1;whiteSpace=wrap;html=1;fillColor=#F1FAEE;strokeColor=#457B9D;fontColor=#1D3557;fontSize=12;fontStyle=1;" vertex="1" parent="1">
          <mxGeometry x="490" y="160" width="100" height="40" as="geometry" />
        </mxCell>
        <mxCell id="JSVNIF9AeEhyUIgbB0q5-4" value="Keycloak" style="rounded=1;whiteSpace=wrap;html=1;fillColor=#E63946;strokeColor=#A8DADC;fontColor=white;fontSize=12;fontStyle=1;" vertex="1" parent="1">
          <mxGeometry x="690" y="160" width="100" height="40" as="geometry" />
        </mxCell>
        <mxCell id="JSVNIF9AeEhyUIgbB0q5-5" value="API Gateway" style="rounded=1;whiteSpace=wrap;html=1;fillColor=#2E86AB;strokeColor=#A8DADC;fontColor=white;fontSize=12;fontStyle=1;" vertex="1" parent="1">
          <mxGeometry x="890" y="160" width="100" height="40" as="geometry" />
        </mxCell>
        <mxCell id="JSVNIF9AeEhyUIgbB0q5-6" value="Backend Service" style="rounded=1;whiteSpace=wrap;html=1;fillColor=#457B9D;strokeColor=#A8DADC;fontColor=white;fontSize=12;fontStyle=1;" vertex="1" parent="1">
          <mxGeometry x="1089" y="160" width="100" height="40" as="geometry" />
        </mxCell>
        <mxCell id="JSVNIF9AeEhyUIgbB0q5-7" value="" style="html=1;points=[];perimeter=orthogonalPerimeter;outlineConnect=0;targetShapes=umlLifeline;portConstraint=eastwest;newEdgeStyle={&quot;edgeStyle&quot;:&quot;elbowEdgeStyle&quot;,&quot;elbow&quot;:&quot;vertical&quot;,&quot;curved&quot;:0,&quot;rounded&quot;:0};fillColor=#A8DADC;strokeColor=#457B9D;" vertex="1" parent="1">
          <mxGeometry x="336" y="230" width="10" height="480" as="geometry" />
        </mxCell>
        <mxCell id="JSVNIF9AeEhyUIgbB0q5-8" value="" style="html=1;points=[];perimeter=orthogonalPerimeter;outlineConnect=0;targetShapes=umlLifeline;portConstraint=eastwest;newEdgeStyle={&quot;edgeStyle&quot;:&quot;elbowEdgeStyle&quot;,&quot;elbow&quot;:&quot;vertical&quot;,&quot;curved&quot;:0,&quot;rounded&quot;:0};fillColor=#F1FAEE;strokeColor=#457B9D;" vertex="1" parent="1">
          <mxGeometry x="535" y="230" width="10" height="480" as="geometry" />
        </mxCell>
        <mxCell id="JSVNIF9AeEhyUIgbB0q5-9" value="" style="html=1;points=[];perimeter=orthogonalPerimeter;outlineConnect=0;targetShapes=umlLifeline;portConstraint=eastwest;newEdgeStyle={&quot;edgeStyle&quot;:&quot;elbowEdgeStyle&quot;,&quot;elbow&quot;:&quot;vertical&quot;,&quot;curved&quot;:0,&quot;rounded&quot;:0};fillColor=#E63946;strokeColor=#457B9D;" vertex="1" parent="1">
          <mxGeometry x="735" y="230" width="10" height="480" as="geometry" />
        </mxCell>
        <mxCell id="JSVNIF9AeEhyUIgbB0q5-10" value="" style="html=1;points=[];perimeter=orthogonalPerimeter;outlineConnect=0;targetShapes=umlLifeline;portConstraint=eastwest;newEdgeStyle={&quot;edgeStyle&quot;:&quot;elbowEdgeStyle&quot;,&quot;elbow&quot;:&quot;vertical&quot;,&quot;curved&quot;:0,&quot;rounded&quot;:0};fillColor=#2E86AB;strokeColor=#457B9D;" vertex="1" parent="1">
          <mxGeometry x="935" y="230" width="10" height="480" as="geometry" />
        </mxCell>
        <mxCell id="JSVNIF9AeEhyUIgbB0q5-11" value="" style="html=1;points=[];perimeter=orthogonalPerimeter;outlineConnect=0;targetShapes=umlLifeline;portConstraint=eastwest;newEdgeStyle={&quot;edgeStyle&quot;:&quot;elbowEdgeStyle&quot;,&quot;elbow&quot;:&quot;vertical&quot;,&quot;curved&quot;:0,&quot;rounded&quot;:0};fillColor=#457B9D;strokeColor=#457B9D;" vertex="1" parent="1">
          <mxGeometry x="1134" y="230" width="10" height="480" as="geometry" />
        </mxCell>
        <mxCell id="JSVNIF9AeEhyUIgbB0q5-12" value="&lt;font style=&quot;font-size: 10px;&quot;&gt;1. Entrer les informations d&#39;identification&lt;/font&gt;" style="html=1;verticalAlign=bottom;endArrow=block;curved=0;rounded=0;strokeColor=#E63946;fontColor=#1D3557;fontSize=11;fontStyle=1;" edge="1" parent="1">
          <mxGeometry x="-0.0125" y="10" width="80" relative="1" as="geometry">
            <mxPoint x="347" y="259.9999999999999" as="sourcePoint" />
            <mxPoint x="535" y="260" as="targetPoint" />
            <mxPoint as="offset" />
          </mxGeometry>
        </mxCell>
        <mxCell id="JSVNIF9AeEhyUIgbB0q5-13" value="&lt;font style=&quot;font-size: 10px;&quot;&gt;2. Envoyer les informations d&#39;identification&lt;/font&gt;" style="html=1;verticalAlign=bottom;endArrow=block;curved=0;rounded=0;strokeColor=#E63946;fontColor=#1D3557;fontSize=11;fontStyle=1;" edge="1" parent="1" target="JSVNIF9AeEhyUIgbB0q5-9">
          <mxGeometry width="80" relative="1" as="geometry">
            <mxPoint x="545" y="290" as="sourcePoint" />
            <mxPoint x="715" y="290" as="targetPoint" />
          </mxGeometry>
        </mxCell>
        <mxCell id="JSVNIF9AeEhyUIgbB0q5-14" value="3. Retourner JWT (Token)" style="html=1;verticalAlign=bottom;endArrow=block;curved=0;rounded=0;strokeColor=#2E86AB;fontColor=#1D3557;fontSize=11;fontStyle=1;dashed=1;" edge="1" parent="1" source="JSVNIF9AeEhyUIgbB0q5-9">
          <mxGeometry width="80" relative="1" as="geometry">
            <mxPoint x="715" y="330" as="sourcePoint" />
            <mxPoint x="545" y="330" as="targetPoint" />
          </mxGeometry>
        </mxCell>
        <mxCell id="JSVNIF9AeEhyUIgbB0q5-15" value="4. Envoyer JWT pour authentification" style="html=1;verticalAlign=bottom;endArrow=block;curved=0;rounded=0;strokeColor=#E63946;fontColor=#1D3557;fontSize=11;fontStyle=1;" edge="1" parent="1" target="JSVNIF9AeEhyUIgbB0q5-10">
          <mxGeometry width="80" relative="1" as="geometry">
            <mxPoint x="545" y="370" as="sourcePoint" />
            <mxPoint x="895" y="370" as="targetPoint" />
          </mxGeometry>
        </mxCell>
        <mxCell id="JSVNIF9AeEhyUIgbB0q5-16" value="5. Transférer JWT au backend" style="html=1;verticalAlign=bottom;endArrow=block;curved=0;rounded=0;strokeColor=#E63946;fontColor=#1D3557;fontSize=11;fontStyle=1;" edge="1" parent="1">
          <mxGeometry width="80" relative="1" as="geometry">
            <mxPoint x="945.0000000000002" y="400" as="sourcePoint" />
            <mxPoint x="1134" y="400" as="targetPoint" />
          </mxGeometry>
        </mxCell>
        <mxCell id="JSVNIF9AeEhyUIgbB0q5-17" value="6. Valider JWT et retourner infos utilisateur" style="html=1;verticalAlign=bottom;endArrow=block;curved=0;rounded=0;strokeColor=#2E86AB;fontColor=#1D3557;fontSize=11;fontStyle=1;dashed=1;" edge="1" parent="1">
          <mxGeometry width="80" relative="1" as="geometry">
            <mxPoint x="1134" y="450" as="sourcePoint" />
            <mxPoint x="945.0000000000002" y="450" as="targetPoint" />
          </mxGeometry>
        </mxCell>
        <mxCell id="JSVNIF9AeEhyUIgbB0q5-18" value="7. Transférer infos utilisateur et statut" style="html=1;verticalAlign=bottom;endArrow=block;curved=0;rounded=0;strokeColor=#2E86AB;fontColor=#1D3557;fontSize=11;fontStyle=1;dashed=1;" edge="1" parent="1" source="JSVNIF9AeEhyUIgbB0q5-10">
          <mxGeometry width="80" relative="1" as="geometry">
            <mxPoint x="895" y="500" as="sourcePoint" />
            <mxPoint x="545" y="500" as="targetPoint" />
            <mxPoint as="offset" />
          </mxGeometry>
        </mxCell>
        <mxCell id="JSVNIF9AeEhyUIgbB0q5-19" value="8. Confirmer succès d&#39;authentification" style="html=1;verticalAlign=bottom;endArrow=block;curved=0;rounded=0;strokeColor=#2E86AB;fontColor=#1D3557;fontSize=11;fontStyle=1;dashed=1;" edge="1" parent="1" target="JSVNIF9AeEhyUIgbB0q5-7">
          <mxGeometry x="0.0053" y="-9" width="80" relative="1" as="geometry">
            <mxPoint x="535" y="549" as="sourcePoint" />
            <mxPoint x="390" y="549" as="targetPoint" />
            <mxPoint as="offset" />
          </mxGeometry>
        </mxCell>
        <mxCell id="JSVNIF9AeEhyUIgbB0q5-20" value="JWT: JSON Web Token&#xa;Utilisé pour l&#39;authentification&#xa;et l&#39;autorisation" style="shape=note;whiteSpace=wrap;html=1;backgroundOutline=1;darkOpacity=0.05;fillColor=#FFF2CC;strokeColor=#D6B656;fontColor=#1D3557;fontSize=10;" vertex="1" parent="1">
          <mxGeometry x="660" y="590" width="160" height="60" as="geometry" />
        </mxCell>
        <mxCell id="JSVNIF9AeEhyUIgbB0q5-21" value="Architecture microservices&#xa;avec authentification centralisée&#xa;via Keycloak" style="shape=note;whiteSpace=wrap;html=1;backgroundOutline=1;darkOpacity=0.05;fillColor=#E1D5E7;strokeColor=#9673A6;fontColor=#1D3557;fontSize=10;" vertex="1" parent="1">
          <mxGeometry x="880" y="590" width="160" height="60" as="geometry" />
        </mxCell>
      </root>
    </mxGraphModel>
  </diagram>
  <diagram id="J_5k3-VPwP-64J_Qpjn7" name="Page-2">
    <mxGraphModel dx="1426" dy="824" grid="1" gridSize="10" guides="1" tooltips="1" connect="1" arrows="1" fold="1" page="1" pageScale="1" pageWidth="850" pageHeight="1100" math="0" shadow="0">
      <root>
        <mxCell id="0" />
        <mxCell id="1" parent="0" />
      </root>
    </mxGraphModel>
  </diagram>
</mxfile>
